<svg xmlns="http://www.w3.org/2000/svg" xmlns:xlink="http://www.w3.org/1999/xlink" xmlns:lucid="lucid" width="640" height="816"><g transform="translate(0 0)" lucid:page-tab-id="0_0"><path d="M0 0h640v816H0z" fill="#fff"/><path d="M201.67 61.25l120 90-120 90-120-90z" stroke="#000" stroke-width="2" fill="#fff"/><use xlink:href="#a" transform="matrix(1,0,0,1,86.66666700000002,66.25) translate(49.349999999999994 77.8)"/><use xlink:href="#b" transform="matrix(1,0,0,1,86.66666700000002,66.25) translate(165.15 77.8)"/><use xlink:href="#c" transform="matrix(1,0,0,1,86.66666700000002,66.25) translate(61.1 99.4)"/><path d="M202.67 321.76h-2v-19.7h2zm0-41.3h-2V242.5h2zM202.67 242.5h-2v-2l1 .75 1-.75zM201.67 336.76l-4.64-14.26h9.27z"/><path d="M201.67 340l-6.02-18.5h12.03zm-3.26-16.5l3.27 10.03 3.26-10.03z"/><use xlink:href="#d" transform="matrix(1,0,0,1,186.991667,280.45) translate(0 14.4)"/><path d="M201.67 341.25l120 90-120 90-120-90z" stroke="#000" stroke-width="2" fill="#fff"/><use xlink:href="#e" transform="matrix(1,0,0,1,86.66666700000002,346.25) translate(8.599999999999994 78.3)"/><use xlink:href="#f" transform="matrix(1,0,0,1,86.66666700000002,346.25) translate(55.55 78.3)"/><use xlink:href="#g" transform="matrix(1,0,0,1,86.66666700000002,346.25) translate(128.45 78.3)"/><use xlink:href="#h" transform="matrix(1,0,0,1,86.66666700000002,346.25) translate(172.45000000000002 78.3)"/><use xlink:href="#i" transform="matrix(1,0,0,1,86.66666700000002,346.25) translate(52.099999999999994 99.9)"/><use xlink:href="#j" transform="matrix(1,0,0,1,86.66666700000002,346.25) translate(167.9 99.9)"/><path d="M202.67 602h-2v-19.83h2zm0-41.42h-2V522.5h2zM202.67 522.5h-2v-2l1 .75 1-.75zM201.67 617l-4.64-14.25h9.27z"/><path d="M201.67 620.25l-6.02-18.5h12.03zm-3.26-16.5l3.27 10.03 3.26-10.03z"/><use xlink:href="#d" transform="matrix(1,0,0,1,186.991667,560.575) translate(0 14.4)"/><path d="M121.67 621.25h160v120h-160z" stroke="#000" stroke-width="2" fill="#fff"/><use xlink:href="#k" transform="matrix(1,0,0,1,126.66666700000002,626.25) translate(3.5999999999999943 47.8)"/><use xlink:href="#l" transform="matrix(1,0,0,1,126.66666700000002,626.25) translate(35.599999999999994 47.8)"/><use xlink:href="#m" transform="matrix(1,0,0,1,126.66666700000002,626.25) translate(9.099999999999994 69.4)"/><use xlink:href="#c" transform="matrix(1,0,0,1,126.66666700000002,626.25) translate(33.099999999999994 69.4)"/><path d="M61.76 152.25H41v629h159.67v-39h2v41H39v-633h22.76z"/><path d="M202.67 742.25h-2v-1h2zM76.76 151.25L62.5 155.9v-9.3z"/><path d="M80 151.25l-18.5 6v-12zm-16.5 3.26l10.03-3.25L63.5 148zM364.33 152.25h-41v-2h39v-46.2h2zm0-69.8h-2V21H202.67v20.76h-2V19h163.66zM323.33 152.25h-3l1.34-1-1.34-1h3z"/><path d="M201.67 56.76l-4.64-14.26h9.27z"/><path d="M201.67 60l-6.02-18.5h12.03zm-3.26-16.5l3.27 10.03 3.26-10.03z"/><use xlink:href="#n" transform="matrix(1,0,0,1,351.85833399999996,82.45) translate(0 14.4)"/><path d="M350.53 432.25h-27.2v-2h27.2zm31.9 0h-8.95v-2h8.95zM323.33 432.25h-3l1.34-1-1.34-1h3zM397.43 431.25l-14.27 4.64v-9.3z"/><path d="M400.67 431.25l-18.5 6v-12zm-16.5 3.26l10.02-3.25-10.04-3.26z"/><use xlink:href="#n" transform="matrix(1,0,0,1,350.5250005,420.45) translate(0 14.4)"/><path d="M401.67 371.25h160v120h-160z" stroke="#000" stroke-width="2" fill="#fff"/><use xlink:href="#o" transform="matrix(1,0,0,1,406.666667,376.25) translate(31.025 37)"/><use xlink:href="#p" transform="matrix(1,0,0,1,406.666667,376.25) translate(93.975 37)"/><use xlink:href="#f" transform="matrix(1,0,0,1,406.666667,376.25) translate(31.049999999999997 58.6)"/><use xlink:href="#q" transform="matrix(1,0,0,1,406.666667,376.25) translate(103.95 58.6)"/><use xlink:href="#r" transform="matrix(1,0,0,1,406.666667,376.25) translate(19.599999999999994 80.20000000000002)"/><path d="M481.67 492.25V602" stroke="#000" stroke-width="2" fill="none"/><path d="M482.67 492.25h-2v-1h2zM481.67 617l-4.64-14.25h9.27z"/><path d="M481.67 620.25l-6.02-18.5h12.03zm-3.26-16.5l3.27 10.03 3.26-10.03z"/><path d="M401.67 621.25h160v120h-160z" stroke="#000" stroke-width="2" fill="#fff"/><g><use xlink:href="#s" transform="matrix(1,0,0,1,406.666667,626.25) translate(34.525 47.8)"/><use xlink:href="#p" transform="matrix(1,0,0,1,406.666667,626.25) translate(90.475 47.8)"/><use xlink:href="#t" transform="matrix(1,0,0,1,406.666667,626.25) translate(41.05 69.4)"/></g><path d="M572.8 682.25h-10.13v-2h10.12zm29.87-1.5h1v1.5h-20.75v-2h19.75zm1-10.13h-2v-20.25h2zm0-30.38h-2V620h2zm0-30.38h-2V589.6h2zm0-30.38h-2v-20.25h2zm0-30.38h-2v-20.25h2zm0-30.38h-2v-20.25h2zm0-30.37h-2V468.1h2zm0-30.38h-2V437.7h2zm0-30.38h-2v-20.26h2zm0-30.4h-2v-20.24h2zm0-30.37h-2v-20.25h2zm0-30.38h-2V316.2h2zm0-30.38h-2v-20.25h2zm0-30.38h-2v-20.26h2zm0-30.38h-2v-20.26h2zm0-30.38h-2v-20.26h2zm0-30.38h-2V164.3h2zm0-30.38h-2v-20.25h2zm0-30.38h-2v-20.25h2zm0-30.38h-2V73.17h2zm0-30.38h-2V42.8h2zm-401-21.28h-2V31.64h2zm401-9.1h-2V21h-6.6v-2h8.6zM220.4 21h-17.73v.5h-2V19h19.74zm364.55 0H564.7v-2h20.25zm-30.38 0h-20.25v-2h20.25zm-30.37 0h-20.26v-2h20.26zm-30.38 0h-20.26v-2h20.26zm-30.38 0H443.2v-2h20.24zm-30.38 0H412.8v-2h20.26zm-30.38 0h-20.25v-2h20.25zm-30.38 0h-20.25v-2h20.25zm-30.38 0h-20.25v-2h20.25zm-30.38 0H291.3v-2h20.24zm-30.37 0H260.9v-2h20.27zm-30.38 0h-20.27v-2h20.26zM562.67 682.25h-1v-2h1zM201.67 56.76l-4.64-14.26h9.27z"/><path d="M201.67 60l-6.02-18.5h12.03zm-3.26-16.5l3.27 10.03 3.26-10.03z"/><defs><path d="M85-194c31 0 48 13 60 33l-1-100h32l1 261h-30c-2-10 0-23-3-31C134-8 116 4 85 4 32 4 16-35 15-94c0-66 23-100 70-100zm9 24c-40 0-46 34-46 75 0 40 6 74 45 74 42 0 51-32 51-76 0-42-9-74-50-73" id="u"/><path d="M100-194c63 0 86 42 84 106H49c0 40 14 67 53 68 26 1 43-12 49-29l28 8c-11 28-37 45-77 45C44 4 14-33 15-96c1-61 26-98 85-98zm52 81c6-60-76-77-97-28-3 7-6 17-6 28h103" id="v"/><path d="M135-143c-3-34-86-38-87 0 15 53 115 12 119 90S17 21 10-45l28-5c4 36 97 45 98 0-10-56-113-15-118-90-4-57 82-63 122-42 12 7 21 19 24 35" id="w"/><path d="M24-231v-30h32v30H24zM24 0v-190h32V0H24" id="x"/><path d="M114-163C36-179 61-72 57 0H25l-1-190h30c1 12-1 29 2 39 6-27 23-49 58-41v29" id="y"/><path d="M212-179c-10-28-35-45-73-45-59 0-87 40-87 99 0 60 29 101 89 101 43 0 62-24 78-52l27 14C228-24 195 4 139 4 59 4 22-46 18-125c-6-104 99-153 187-111 19 9 31 26 39 46" id="z"/><path d="M100-194c62-1 85 37 85 99 1 63-27 99-86 99S16-35 15-95c0-66 28-99 85-99zM99-20c44 1 53-31 53-75 0-43-8-75-51-75s-53 32-53 75 10 74 51 75" id="A"/><path d="M117-194c89-4 53 116 60 194h-32v-121c0-31-8-49-39-48C34-167 62-67 57 0H25l-1-190h30c1 10-1 24 2 32 11-22 29-35 61-36" id="B"/><path d="M101-234c-31-9-42 10-38 44h38v23H63V0H32v-167H5v-23h27c-7-52 17-82 69-68v24" id="C"/><path d="M177-190C167-65 218 103 67 71c-23-6-38-20-44-43l32-5c15 47 100 32 89-28v-30C133-14 115 1 83 1 29 1 15-40 15-95c0-56 16-97 71-98 29-1 48 16 59 35 1-10 0-23 2-32h30zM94-22c36 0 50-32 50-73 0-42-14-75-50-75-39 0-46 34-46 75s6 73 46 73" id="D"/><g id="a"><use transform="matrix(0.05,0,0,0.05,0,0)" xlink:href="#u"/><use transform="matrix(0.05,0,0,0.05,10,0)" xlink:href="#v"/><use transform="matrix(0.05,0,0,0.05,20,0)" xlink:href="#w"/><use transform="matrix(0.05,0,0,0.05,29,0)" xlink:href="#x"/><use transform="matrix(0.05,0,0,0.05,32.95,0)" xlink:href="#y"/><use transform="matrix(0.05,0,0,0.05,38.900000000000006,0)" xlink:href="#v"/><use transform="matrix(0.05,0,0,0.05,48.900000000000006,0)" xlink:href="#u"/><use transform="matrix(0.05,0,0,0.05,58.900000000000006,0)" xlink:href="#z"/><use transform="matrix(0.05,0,0,0.05,71.85000000000001,0)" xlink:href="#A"/><use transform="matrix(0.05,0,0,0.05,81.85000000000001,0)" xlink:href="#B"/><use transform="matrix(0.05,0,0,0.05,91.85000000000001,0)" xlink:href="#C"/><use transform="matrix(0.05,0,0,0.05,96.85000000000001,0)" xlink:href="#x"/><use transform="matrix(0.05,0,0,0.05,100.80000000000001,0)" xlink:href="#D"/></g><path d="M63-70H37l-4-178h34zM33 0v-35h34V0H33" id="E"/><path d="M18-150v-26h174v26H18zm0 90v-26h174v26H18" id="F"/><g id="b"><use transform="matrix(0.05,0,0,0.05,0,0)" xlink:href="#E"/><use transform="matrix(0.05,0,0,0.05,5,0)" xlink:href="#F"/></g><path d="M96-169c-40 0-48 33-48 73s9 75 48 75c24 0 41-14 43-38l32 2c-6 37-31 61-74 61-59 0-76-41-82-99-10-93 101-131 147-64 4 7 5 14 7 22l-32 3c-4-21-16-35-41-35" id="G"/><path d="M84 4C-5 8 30-112 23-190h32v120c0 31 7 50 39 49 72-2 45-101 50-169h31l1 190h-30c-1-10 1-25-2-33-11 22-28 36-60 37" id="H"/><path d="M59-47c-2 24 18 29 38 22v24C64 9 27 4 27-40v-127H5v-23h24l9-43h21v43h35v23H59v120" id="I"/><g id="c"><use transform="matrix(0.05,0,0,0.05,0,0)" xlink:href="#G"/><use transform="matrix(0.05,0,0,0.05,9,0)" xlink:href="#H"/><use transform="matrix(0.05,0,0,0.05,19,0)" xlink:href="#y"/><use transform="matrix(0.05,0,0,0.05,24.95,0)" xlink:href="#y"/><use transform="matrix(0.05,0,0,0.05,30.899999999999995,0)" xlink:href="#v"/><use transform="matrix(0.05,0,0,0.05,40.9,0)" xlink:href="#B"/><use transform="matrix(0.05,0,0,0.05,50.9,0)" xlink:href="#I"/><use transform="matrix(0.05,0,0,0.05,55.900000000000006,0)" xlink:href="#z"/><use transform="matrix(0.05,0,0,0.05,68.85,0)" xlink:href="#A"/><use transform="matrix(0.05,0,0,0.05,78.85,0)" xlink:href="#B"/><use transform="matrix(0.05,0,0,0.05,88.85,0)" xlink:href="#C"/><use transform="matrix(0.05,0,0,0.05,93.85,0)" xlink:href="#x"/><use transform="matrix(0.05,0,0,0.05,97.8,0)" xlink:href="#D"/></g><path d="M137-103V0h-34v-103L8-248h37l75 118 75-118h37" id="J"/><g id="d"><use transform="matrix(0.05,0,0,0.05,0,0)" xlink:href="#J"/><use transform="matrix(0.05,0,0,0.05,10.35,0)" xlink:href="#v"/><use transform="matrix(0.05,0,0,0.05,20.35,0)" xlink:href="#w"/></g><path d="M30-248c118-7 216 8 213 122C240-48 200 0 122 0H30v-248zM63-27c89 8 146-16 146-99s-60-101-146-95v194" id="K"/><g id="e"><use transform="matrix(0.05,0,0,0.05,0,0)" xlink:href="#K"/><use transform="matrix(0.05,0,0,0.05,12.950000000000001,0)" xlink:href="#A"/><use transform="matrix(0.05,0,0,0.05,22.950000000000003,0)" xlink:href="#v"/><use transform="matrix(0.05,0,0,0.05,32.95,0)" xlink:href="#w"/></g><path d="M210-169c-67 3-38 105-44 169h-31v-121c0-29-5-50-35-48C34-165 62-65 56 0H25l-1-190h30c1 10-1 24 2 32 10-44 99-50 107 0 11-21 27-35 58-36 85-2 47 119 55 194h-31v-121c0-29-5-49-35-48" id="L"/><path d="M141-36C126-15 110 5 73 4 37 3 15-17 15-53c-1-64 63-63 125-63 3-35-9-54-41-54-24 1-41 7-42 31l-33-3c5-37 33-52 76-52 45 0 72 20 72 64v82c-1 20 7 32 28 27v20c-31 9-61-2-59-35zM48-53c0 20 12 33 32 33 41-3 63-29 60-74-43 2-92-5-92 41" id="M"/><path d="M106-169C34-169 62-67 57 0H25v-261h32l-1 103c12-21 28-36 61-36 89 0 53 116 60 194h-32v-121c2-32-8-49-39-48" id="N"/><g id="f"><use transform="matrix(0.05,0,0,0.05,0,0)" xlink:href="#L"/><use transform="matrix(0.05,0,0,0.05,14.950000000000001,0)" xlink:href="#M"/><use transform="matrix(0.05,0,0,0.05,24.950000000000003,0)" xlink:href="#G"/><use transform="matrix(0.05,0,0,0.05,33.95,0)" xlink:href="#N"/><use transform="matrix(0.05,0,0,0.05,43.95,0)" xlink:href="#x"/><use transform="matrix(0.05,0,0,0.05,47.900000000000006,0)" xlink:href="#B"/><use transform="matrix(0.05,0,0,0.05,57.900000000000006,0)" xlink:href="#v"/></g><g id="g"><use transform="matrix(0.05,0,0,0.05,0,0)" xlink:href="#w"/><use transform="matrix(0.05,0,0,0.05,9,0)" xlink:href="#I"/><use transform="matrix(0.05,0,0,0.05,14,0)" xlink:href="#M"/><use transform="matrix(0.05,0,0,0.05,24,0)" xlink:href="#I"/><use transform="matrix(0.05,0,0,0.05,29,0)" xlink:href="#v"/></g><g id="h"><use transform="matrix(0.05,0,0,0.05,0,0)" xlink:href="#L"/><use transform="matrix(0.05,0,0,0.05,14.950000000000001,0)" xlink:href="#M"/><use transform="matrix(0.05,0,0,0.05,24.950000000000003,0)" xlink:href="#I"/><use transform="matrix(0.05,0,0,0.05,29.950000000000003,0)" xlink:href="#G"/><use transform="matrix(0.05,0,0,0.05,38.95,0)" xlink:href="#N"/></g><g id="i"><use transform="matrix(0.05,0,0,0.05,0,0)" xlink:href="#u"/><use transform="matrix(0.05,0,0,0.05,10,0)" xlink:href="#v"/><use transform="matrix(0.05,0,0,0.05,20,0)" xlink:href="#w"/><use transform="matrix(0.05,0,0,0.05,29,0)" xlink:href="#x"/><use transform="matrix(0.05,0,0,0.05,32.95,0)" xlink:href="#y"/><use transform="matrix(0.05,0,0,0.05,38.900000000000006,0)" xlink:href="#v"/><use transform="matrix(0.05,0,0,0.05,48.900000000000006,0)" xlink:href="#u"/><use transform="matrix(0.05,0,0,0.05,58.900000000000006,0)" xlink:href="#z"/><use transform="matrix(0.05,0,0,0.05,71.85000000000001,0)" xlink:href="#A"/><use transform="matrix(0.05,0,0,0.05,81.85000000000001,0)" xlink:href="#B"/><use transform="matrix(0.05,0,0,0.05,91.85000000000001,0)" xlink:href="#C"/><use transform="matrix(0.05,0,0,0.05,96.85000000000001,0)" xlink:href="#x"/><use transform="matrix(0.05,0,0,0.05,100.80000000000001,0)" xlink:href="#D"/></g><path d="M103-251c84 0 111 97 45 133-19 10-37 24-39 52H78c0-63 77-55 77-114 0-30-21-42-52-43-32 0-53 17-56 46l-32-2c7-45 34-72 88-72zM77 0v-35h34V0H77" id="O"/><use transform="matrix(0.05,0,0,0.05,0,0)" xlink:href="#O" id="j"/><path d="M185-189c-5-48-123-54-124 2 14 75 158 14 163 119 3 78-121 87-175 55-17-10-28-26-33-46l33-7c5 56 141 63 141-1 0-78-155-14-162-118-5-82 145-84 179-34 5 7 8 16 11 25" id="P"/><g id="k"><use transform="matrix(0.05,0,0,0.05,0,0)" xlink:href="#P"/><use transform="matrix(0.05,0,0,0.05,12,0)" xlink:href="#v"/><use transform="matrix(0.05,0,0,0.05,22,0)" xlink:href="#I"/></g><g id="l"><use transform="matrix(0.05,0,0,0.05,0,0)" xlink:href="#u"/><use transform="matrix(0.05,0,0,0.05,10,0)" xlink:href="#v"/><use transform="matrix(0.05,0,0,0.05,20,0)" xlink:href="#w"/><use transform="matrix(0.05,0,0,0.05,29,0)" xlink:href="#x"/><use transform="matrix(0.05,0,0,0.05,32.95,0)" xlink:href="#y"/><use transform="matrix(0.05,0,0,0.05,38.900000000000006,0)" xlink:href="#v"/><use transform="matrix(0.05,0,0,0.05,48.900000000000006,0)" xlink:href="#u"/><use transform="matrix(0.05,0,0,0.05,58.900000000000006,0)" xlink:href="#z"/><use transform="matrix(0.05,0,0,0.05,71.85000000000001,0)" xlink:href="#A"/><use transform="matrix(0.05,0,0,0.05,81.85000000000001,0)" xlink:href="#B"/><use transform="matrix(0.05,0,0,0.05,91.85000000000001,0)" xlink:href="#C"/><use transform="matrix(0.05,0,0,0.05,96.85000000000001,0)" xlink:href="#x"/><use transform="matrix(0.05,0,0,0.05,100.80000000000001,0)" xlink:href="#D"/></g><g id="m"><use transform="matrix(0.05,0,0,0.05,0,0)" xlink:href="#M"/><use transform="matrix(0.05,0,0,0.05,10,0)" xlink:href="#w"/></g><path d="M190 0L58-211 59 0H30v-248h39L202-35l-2-213h31V0h-41" id="Q"/><g id="n"><use transform="matrix(0.05,0,0,0.05,0,0)" xlink:href="#Q"/><use transform="matrix(0.05,0,0,0.05,12.950000000000001,0)" xlink:href="#A"/></g><path d="M232-93c-1 65-40 97-104 97C67 4 28-28 28-90v-158h33c8 89-33 224 67 224 102 0 64-133 71-224h33v155" id="R"/><path d="M115-194c55 1 70 41 70 98S169 2 115 4C84 4 66-9 55-30l1 105H24l-1-265h31l2 30c10-21 28-34 59-34zm-8 174c40 0 45-34 45-75s-6-73-45-74c-42 0-51 32-51 76 0 43 10 73 51 73" id="S"/><g id="o"><use transform="matrix(0.05,0,0,0.05,0,0)" xlink:href="#R"/><use transform="matrix(0.05,0,0,0.05,12.950000000000001,0)" xlink:href="#S"/><use transform="matrix(0.05,0,0,0.05,22.950000000000003,0)" xlink:href="#u"/><use transform="matrix(0.05,0,0,0.05,32.95,0)" xlink:href="#M"/><use transform="matrix(0.05,0,0,0.05,42.95,0)" xlink:href="#I"/><use transform="matrix(0.05,0,0,0.05,47.95,0)" xlink:href="#v"/></g><g id="p"><use transform="matrix(0.05,0,0,0.05,0,0)" xlink:href="#I"/><use transform="matrix(0.05,0,0,0.05,5,0)" xlink:href="#N"/><use transform="matrix(0.05,0,0,0.05,15,0)" xlink:href="#v"/></g><g id="q"><use transform="matrix(0.05,0,0,0.05,0,0)" xlink:href="#I"/><use transform="matrix(0.05,0,0,0.05,5,0)" xlink:href="#A"/></g><g id="r"><use transform="matrix(0.05,0,0,0.05,0,0)" xlink:href="#u"/><use transform="matrix(0.05,0,0,0.05,10,0)" xlink:href="#v"/><use transform="matrix(0.05,0,0,0.05,20,0)" xlink:href="#w"/><use transform="matrix(0.05,0,0,0.05,29,0)" xlink:href="#x"/><use transform="matrix(0.05,0,0,0.05,32.95,0)" xlink:href="#y"/><use transform="matrix(0.05,0,0,0.05,38.900000000000006,0)" xlink:href="#v"/><use transform="matrix(0.05,0,0,0.05,48.900000000000006,0)" xlink:href="#u"/><use transform="matrix(0.05,0,0,0.05,58.900000000000006,0)" xlink:href="#z"/><use transform="matrix(0.05,0,0,0.05,71.85000000000001,0)" xlink:href="#A"/><use transform="matrix(0.05,0,0,0.05,81.85000000000001,0)" xlink:href="#B"/><use transform="matrix(0.05,0,0,0.05,91.85000000000001,0)" xlink:href="#C"/><use transform="matrix(0.05,0,0,0.05,96.85000000000001,0)" xlink:href="#x"/><use transform="matrix(0.05,0,0,0.05,100.80000000000001,0)" xlink:href="#D"/></g><path d="M115-194c53 0 69 39 70 98 0 66-23 100-70 100C84 3 66-7 56-30L54 0H23l1-261h32v101c10-23 28-34 59-34zm-8 174c40 0 45-34 45-75 0-40-5-75-45-74-42 0-51 32-51 76 0 43 10 73 51 73" id="T"/><g id="s"><use transform="matrix(0.05,0,0,0.05,0,0)" xlink:href="#y"/><use transform="matrix(0.05,0,0,0.05,5.95,0)" xlink:href="#v"/><use transform="matrix(0.05,0,0,0.05,15.949999999999998,0)" xlink:href="#T"/><use transform="matrix(0.05,0,0,0.05,25.950000000000003,0)" xlink:href="#A"/><use transform="matrix(0.05,0,0,0.05,35.95,0)" xlink:href="#A"/><use transform="matrix(0.05,0,0,0.05,45.95,0)" xlink:href="#I"/></g><g id="t"><use transform="matrix(0.05,0,0,0.05,0,0)" xlink:href="#L"/><use transform="matrix(0.05,0,0,0.05,14.950000000000001,0)" xlink:href="#M"/><use transform="matrix(0.05,0,0,0.05,24.950000000000003,0)" xlink:href="#G"/><use transform="matrix(0.05,0,0,0.05,33.95,0)" xlink:href="#N"/><use transform="matrix(0.05,0,0,0.05,43.95,0)" xlink:href="#x"/><use transform="matrix(0.05,0,0,0.05,47.900000000000006,0)" xlink:href="#B"/><use transform="matrix(0.05,0,0,0.05,57.900000000000006,0)" xlink:href="#v"/></g></defs></g></svg>